<svg width="248" height="248" viewBox="0 0 248 248" fill="none" xmlns="http://www.w3.org/2000/svg">
<rect x="8" y="143" width="113" height="89" fill="#B1FFFA" fill-opacity="0.21"/>
<rect x="131" y="143" width="109" height="89" fill="#B1FFFA" fill-opacity="0.21"/>
<path d="M5 127.5H243C243.276 127.5 243.5 127.724 243.5 128V243C243.5 243.276 243.276 243.5 243 243.5H5C4.72386 243.5 4.5 243.276 4.5 243V128C4.5 127.724 4.72386 127.5 5 127.5Z" stroke="#7E8595" stroke-width="9"/>
<path d="M6 127.5H126C126.276 127.5 126.5 127.724 126.5 128V243C126.5 243.276 126.276 243.5 126 243.5H6C5.72386 243.5 5.5 243.276 5.5 243V128C5.5 127.724 5.72386 127.5 6 127.5Z" stroke="#7E8595" stroke-width="9"/>
<path d="M5 127.5H243C243.276 127.5 243.5 127.724 243.5 128V243C243.5 243.276 243.276 243.5 243 243.5H5C4.72386 243.5 4.5 243.276 4.5 243V128C4.5 127.724 4.72386 127.5 5 127.5Z" stroke="#7E8595" stroke-width="9"/>
<path d="M4.5 5C4.5 4.72386 4.72385 4.5 5 4.5H243C243.276 4.5 243.5 4.72385 243.5 5V243C243.5 243.276 243.276 243.5 243 243.5H5C4.72386 243.5 4.5 243.276 4.5 243V5Z" stroke="#7E8595" stroke-width="9"/>
<rect y="239" width="248" height="9" rx="4.5" fill="#7E8595"/>
</svg>
