<svg width="37" height="49" viewBox="0 0 37 49" fill="none" xmlns="http://www.w3.org/2000/svg">
<path d="M18.5 0C8.29167 0 0.125 8.16667 0.125 18.375C0.125 31.0333 7.06667 42.2625 17.4792 48.7958C18.0917 49.2042 18.9083 49.2042 19.725 48.7958C29.9333 42.0583 36.875 31.0333 36.875 18.375C36.875 8.16667 28.7083 0 18.5 0ZM18.5 26.5417C14.0083 26.5417 10.3333 22.8667 10.3333 18.375C10.3333 13.8833 14.0083 10.2083 18.5 10.2083C22.9917 10.2083 26.6667 13.8833 26.6667 18.375C26.6667 22.8667 22.9917 26.5417 18.5 26.5417Z" fill="#FF4E16"/>
</svg>
