<svg width="799" height="153" viewBox="0 0 799 153" fill="none" xmlns="http://www.w3.org/2000/svg">
<path d="M7.89551 61V14.0371H12.168V57.001H46.4844V61H7.89551ZM99.9756 61L93.5156 48.627H61.626L55.166 61H50.4834L75.0586 14.0371H80.083L104.658 61H99.9756ZM77.5879 18.1729L63.7109 44.6963H91.4307L77.5879 18.1729ZM161.396 57.2744C159.756 57.958 158.127 58.5846 156.509 59.1543C154.914 59.724 153.25 60.2139 151.519 60.624C149.787 61.0342 147.964 61.3532 146.05 61.5811C144.136 61.8089 142.051 61.9229 139.795 61.9229C137.015 61.9229 134.338 61.695 131.763 61.2393C129.211 60.7835 126.829 60.0999 124.619 59.1885C122.409 58.277 120.404 57.1491 118.604 55.8047C116.803 54.4375 115.254 52.8538 113.955 51.0537C112.679 49.2536 111.688 47.2256 110.981 44.9697C110.298 42.7139 109.956 40.2415 109.956 37.5527C109.956 34.8639 110.298 32.3916 110.981 30.1357C111.688 27.8799 112.679 25.8519 113.955 24.0518C115.254 22.2516 116.803 20.6794 118.604 19.335C120.404 17.9678 122.409 16.8285 124.619 15.917C126.829 15.0055 129.211 14.3219 131.763 13.8662C134.315 13.4105 136.992 13.1826 139.795 13.1826C142.051 13.1826 144.136 13.2965 146.05 13.5244C147.964 13.7523 149.787 14.0713 151.519 14.4814C153.25 14.8916 154.914 15.3815 156.509 15.9512C158.127 16.498 159.756 17.1133 161.396 17.7969V22.9238C160.098 22.1035 158.708 21.3288 157.227 20.5996C155.745 19.8704 154.139 19.2324 152.407 18.6855C150.698 18.1387 148.864 17.7057 146.904 17.3867C144.945 17.0677 142.848 16.9082 140.615 16.9082C136.104 16.9082 132.196 17.3981 128.892 18.3779C125.588 19.3577 122.853 20.7477 120.688 22.5479C118.547 24.3252 116.951 26.4899 115.903 29.042C114.878 31.5713 114.365 34.4082 114.365 37.5527C114.365 40.6973 114.878 43.5342 115.903 46.0635C116.951 48.5928 118.547 50.7575 120.688 52.5576C122.853 54.335 125.588 55.7135 128.892 56.6934C132.196 57.6504 136.104 58.1289 140.615 58.1289C142.848 58.1289 144.956 57.9694 146.938 57.6504C148.944 57.3314 150.812 56.8984 152.544 56.3516C154.299 55.8047 155.905 55.1781 157.363 54.4717C158.844 53.7425 160.189 52.9792 161.396 52.1816V57.2744ZM174.077 61V14.0371H213.213V18.0361H178.726V34.2031H211.47V38.168H178.726V57.001H213.726V61H174.077ZM231.191 40.9023V61H226.919V14.0371H250.298C253.875 14.0371 256.94 14.3219 259.492 14.8916C262.044 15.4385 264.129 16.2816 265.747 17.4209C267.388 18.5374 268.584 19.9388 269.336 21.625C270.088 23.3112 270.464 25.2822 270.464 27.5381C270.464 31.0472 269.541 33.8613 267.695 35.9805C265.85 38.0768 262.876 39.5124 258.774 40.2871L274.805 61H269.438L254.297 40.7656C253.659 40.8112 253.009 40.8454 252.349 40.8682C251.688 40.891 251.004 40.9023 250.298 40.9023H231.191ZM266.055 27.5381C266.055 25.5329 265.701 23.915 264.995 22.6846C264.289 21.4313 263.138 20.4629 261.543 19.7793C259.948 19.0957 257.852 18.64 255.254 18.4121C252.679 18.1615 249.512 18.0361 245.752 18.0361H231.191V36.9033H245.615C249.375 36.9033 252.554 36.8008 255.151 36.5957C257.749 36.3678 259.857 35.9235 261.475 35.2627C263.092 34.5791 264.255 33.6335 264.961 32.4258C265.69 31.1953 266.055 29.5661 266.055 27.5381ZM336.499 37.4844C336.499 40.4922 336.18 43.1696 335.542 45.5166C334.927 47.8408 334.049 49.8688 332.91 51.6006C331.771 53.3324 330.381 54.8021 328.74 56.0098C327.122 57.2174 325.311 58.1859 323.306 58.915C321.323 59.6442 319.159 60.1797 316.812 60.5215C314.487 60.8405 312.038 61 309.463 61H285.229V14.0371H309.395C313.245 14.0371 316.823 14.4131 320.127 15.165C323.431 15.917 326.291 17.2044 328.706 19.0273C331.144 20.8275 333.047 23.2314 334.414 26.2393C335.804 29.2471 336.499 32.9954 336.499 37.4844ZM332.09 37.4844C332.09 34.9323 331.839 32.6764 331.338 30.7168C330.837 28.7572 330.119 27.0596 329.185 25.624C328.25 24.1657 327.111 22.9466 325.767 21.9668C324.422 20.987 322.907 20.2008 321.221 19.6084C319.535 18.9932 317.7 18.5602 315.718 18.3096C313.735 18.0589 311.628 17.9336 309.395 17.9336H289.502V57.0693H309.395C312.744 57.0693 315.809 56.7731 318.589 56.1807C321.369 55.5654 323.75 54.5173 325.732 53.0361C327.738 51.5322 329.299 49.527 330.415 47.0205C331.532 44.4912 332.09 41.3125 332.09 37.4844Z" fill="#606673"/>
<path d="M399.895 101.703H343.043L333.469 121H302.742L356.105 19.0234H386.832L440.195 121H409.469L399.895 101.703ZM352.914 81.8125H390.172L371.617 44.2578L352.914 81.8125Z" fill="#FF4E16"/>
<path d="M438.896 109V62.0371H443.168V105.001H477.484V109H438.896ZM534.975 94.2344C534.975 96.5814 534.473 98.7233 533.471 100.66C532.491 102.574 531.01 104.226 529.027 105.616C527.068 106.983 524.607 108.043 521.645 108.795C518.682 109.547 515.23 109.923 511.288 109.923C507.346 109.923 503.894 109.547 500.932 108.795C497.969 108.043 495.497 106.983 493.515 105.616C491.532 104.226 490.04 102.574 489.037 100.66C488.057 98.7233 487.567 96.5814 487.567 94.2344V62.0371H491.84V94.5762C491.84 96.1484 492.25 97.641 493.07 99.0537C493.913 100.444 495.155 101.663 496.796 102.711C498.437 103.759 500.465 104.591 502.88 105.206C505.295 105.821 508.098 106.129 511.288 106.129C514.455 106.129 517.247 105.821 519.662 105.206C522.077 104.591 524.105 103.759 525.746 102.711C527.387 101.663 528.617 100.444 529.438 99.0537C530.281 97.641 530.702 96.1484 530.702 94.5762V62.0371H534.975V94.2344ZM610.102 109V69.0439L584.296 109H580.502L554.662 68.873V109H550.39V62.0371H554.97L582.519 104.591L609.76 62.0371H614.306V109H610.102ZM630.165 109V62.0371H634.438V109H630.165ZM644.418 51.3389L629.379 57.6963L628.046 55.0303L642.675 47.75L644.418 51.3389ZM695.346 109L654.535 67.6426V109H650.263V62.0371H654.979L695.79 103.531V62.0371H699.994V109H695.346ZM715.819 109V62.0371H720.092V109H715.819ZM792.279 85.5527C792.279 89.7682 791.516 93.4141 789.989 96.4902C788.463 99.5436 786.366 102.073 783.7 104.078C781.034 106.061 777.89 107.53 774.267 108.487C770.644 109.444 766.736 109.923 762.543 109.923C758.327 109.923 754.397 109.444 750.751 108.487C747.105 107.53 743.938 106.061 741.249 104.078C738.56 102.073 736.452 99.5436 734.926 96.4902C733.399 93.4141 732.636 89.7682 732.636 85.5527C732.636 82.75 732.989 80.2093 733.695 77.9307C734.402 75.6292 735.393 73.5785 736.669 71.7783C737.945 69.9554 739.483 68.3831 741.283 67.0615C743.106 65.7399 745.123 64.6462 747.333 63.7803C749.566 62.8916 751.959 62.2422 754.511 61.832C757.063 61.3991 759.74 61.1826 762.543 61.1826C766.736 61.1826 770.644 61.6611 774.267 62.6182C777.89 63.5752 781.034 65.0563 783.7 67.0615C786.366 69.0439 788.463 71.5732 789.989 74.6494C791.516 77.7028 792.279 81.3372 792.279 85.5527ZM787.87 85.5527C787.87 82.2259 787.323 79.2865 786.229 76.7344C785.159 74.1823 783.563 72.0404 781.444 70.3086C779.325 68.554 776.682 67.2324 773.515 66.3438C770.37 65.4323 766.713 64.9766 762.543 64.9766C758.373 64.9766 754.693 65.4323 751.503 66.3438C748.336 67.2552 745.681 68.5882 743.539 70.3428C741.397 72.0745 739.779 74.2279 738.686 76.8027C737.592 79.3548 737.045 82.2715 737.045 85.5527C737.045 88.8796 737.592 91.819 738.686 94.3711C739.779 96.9232 741.397 99.0765 743.539 100.831C745.681 102.563 748.336 103.884 751.503 104.796C754.693 105.685 758.373 106.129 762.543 106.129C766.713 106.129 770.37 105.685 773.515 104.796C776.682 103.884 779.325 102.563 781.444 100.831C783.563 99.0765 785.159 96.9232 786.229 94.3711C787.323 91.819 787.87 88.8796 787.87 85.5527Z" fill="#606673"/>
<line x1="346" y1="69.5" x2="8" y2="69.5" stroke="#FF4E16" stroke-width="7"/>
<line x1="792" y1="117.5" x2="411" y2="117.5" stroke="#FF4E16" stroke-width="7"/>
</svg>
