<svg width="839" height="153" viewBox="0 0 839 153" fill="none" xmlns="http://www.w3.org/2000/svg">
<path d="M7.89551 60.8087V13.8458H12.168V56.8096H46.4844V60.8087H7.89551ZM99.9756 60.8087L93.5156 48.4356H61.626L55.166 60.8087H50.4834L75.0586 13.8458H80.083L104.658 60.8087H99.9756ZM77.5879 17.9815L63.7109 44.5049H91.4307L77.5879 17.9815ZM161.396 57.0831C159.756 57.7667 158.127 58.3933 156.509 58.963C154.914 59.5326 153.25 60.0225 151.519 60.4327C149.787 60.8428 147.964 61.1618 146.05 61.3897C144.136 61.6176 142.051 61.7315 139.795 61.7315C137.015 61.7315 134.338 61.5036 131.763 61.0479C129.211 60.5922 126.829 59.9086 124.619 58.9971C122.409 58.0857 120.404 56.9577 118.604 55.6133C116.803 54.2462 115.254 52.6625 113.955 50.8624C112.679 49.0622 111.688 47.0342 110.981 44.7784C110.298 42.5225 109.956 40.0502 109.956 37.3614C109.956 34.6726 110.298 32.2003 110.981 29.9444C111.688 27.6885 112.679 25.6605 113.955 23.8604C115.254 22.0603 116.803 20.488 118.604 19.1436C120.404 17.7764 122.409 16.6371 124.619 15.7256C126.829 14.8142 129.211 14.1306 131.763 13.6749C134.315 13.2191 136.992 12.9913 139.795 12.9913C142.051 12.9913 144.136 13.1052 146.05 13.3331C147.964 13.5609 149.787 13.8799 151.519 14.2901C153.25 14.7003 154.914 15.1902 156.509 15.7598C158.127 16.3067 159.756 16.9219 161.396 17.6055V22.7325C160.098 21.9122 158.708 21.1374 157.227 20.4083C155.745 19.6791 154.139 19.0411 152.407 18.4942C150.698 17.9473 148.864 17.5144 146.904 17.1954C144.945 16.8764 142.848 16.7169 140.615 16.7169C136.104 16.7169 132.196 17.2068 128.892 18.1866C125.588 19.1664 122.853 20.5564 120.688 22.3565C118.547 24.1339 116.951 26.2986 115.903 28.8506C114.878 31.3799 114.365 34.2169 114.365 37.3614C114.365 40.5059 114.878 43.3428 115.903 45.8721C116.951 48.4014 118.547 50.5661 120.688 52.3663C122.853 54.1436 125.588 55.5222 128.892 56.502C132.196 57.459 136.104 57.9376 140.615 57.9376C142.848 57.9376 144.956 57.7781 146.938 57.459C148.944 57.14 150.812 56.7071 152.544 56.1602C154.299 55.6133 155.905 54.9867 157.363 54.2803C158.844 53.5512 160.189 52.7878 161.396 51.9903V57.0831ZM174.077 60.8087V13.8458H213.213V17.8448H178.726V34.0118H211.47V37.9766H178.726V56.8096H213.726V60.8087H174.077ZM231.191 40.711V60.8087H226.919V13.8458H250.298C253.875 13.8458 256.94 14.1306 259.492 14.7003C262.044 15.2471 264.129 16.0902 265.747 17.2296C267.388 18.3461 268.584 19.7475 269.336 21.4337C270.088 23.1199 270.464 25.0909 270.464 27.3467C270.464 30.8559 269.541 33.67 267.695 35.7891C265.85 37.8855 262.876 39.321 258.774 40.0958L274.805 60.8087H269.438L254.297 40.5743C253.659 40.6199 253.009 40.654 252.349 40.6768C251.688 40.6996 251.004 40.711 250.298 40.711H231.191ZM266.055 27.3467C266.055 25.3415 265.701 23.7237 264.995 22.4932C264.289 21.24 263.138 20.2715 261.543 19.588C259.948 18.9044 257.852 18.4486 255.254 18.2208C252.679 17.9701 249.512 17.8448 245.752 17.8448H231.191V36.712H245.615C249.375 36.712 252.554 36.6094 255.151 36.4044C257.749 36.1765 259.857 35.7322 261.475 35.0714C263.092 34.3878 264.255 33.4421 264.961 32.2344C265.69 31.004 266.055 29.3747 266.055 27.3467ZM336.499 37.293C336.499 40.3008 336.18 42.9783 335.542 45.3253C334.927 47.6495 334.049 49.6775 332.91 51.4092C331.771 53.141 330.381 54.6107 328.74 55.8184C327.122 57.0261 325.311 57.9945 323.306 58.7237C321.323 59.4529 319.159 59.9883 316.812 60.3301C314.487 60.6491 312.038 60.8087 309.463 60.8087H285.229V13.8458H309.395C313.245 13.8458 316.823 14.2217 320.127 14.9737C323.431 15.7256 326.291 17.0131 328.706 18.836C331.144 20.6361 333.047 23.0401 334.414 26.0479C335.804 29.0557 336.499 32.8041 336.499 37.293ZM332.09 37.293C332.09 34.7409 331.839 32.4851 331.338 30.5255C330.837 28.5658 330.119 26.8682 329.185 25.4327C328.25 23.9743 327.111 22.7553 325.767 21.7755C324.422 20.7956 322.907 20.0095 321.221 19.4171C319.535 18.8018 317.7 18.3689 315.718 18.1182C313.735 17.8676 311.628 17.7422 309.395 17.7422H289.502V56.878H309.395C312.744 56.878 315.809 56.5818 318.589 55.9893C321.369 55.3741 323.75 54.3259 325.732 52.8448C327.738 51.3409 329.299 49.3357 330.415 46.8292C331.532 44.2999 332.09 41.1212 332.09 37.293Z" fill="#606673"/>
<path d="M399.895 101.703H343.043L333.469 121H302.742L356.105 19.0234H386.832L440.195 121H409.469L399.895 101.703ZM352.914 81.8125H390.172L371.617 44.2578L352.914 81.8125Z" fill="#FF4E16"/>
<path d="M438.896 109V62.0371H443.168V105.001H477.484V109H438.896ZM534.975 94.2344C534.975 96.5814 534.473 98.7233 533.471 100.66C532.491 102.574 531.01 104.226 529.027 105.616C527.068 106.983 524.607 108.043 521.645 108.795C518.682 109.547 515.23 109.923 511.288 109.923C507.346 109.923 503.894 109.547 500.932 108.795C497.969 108.043 495.497 106.983 493.515 105.616C491.532 104.226 490.04 102.574 489.037 100.66C488.057 98.7233 487.567 96.5814 487.567 94.2344V62.0371H491.84V94.5762C491.84 96.1484 492.25 97.641 493.07 99.0537C493.913 100.444 495.155 101.663 496.796 102.711C498.437 103.759 500.465 104.591 502.88 105.206C505.295 105.821 508.098 106.129 511.288 106.129C514.455 106.129 517.247 105.821 519.662 105.206C522.077 104.591 524.105 103.759 525.746 102.711C527.387 101.663 528.617 100.444 529.438 99.0537C530.281 97.641 530.702 96.1484 530.702 94.5762V62.0371H534.975V94.2344ZM610.102 109V69.0439L584.296 109H580.502L554.662 68.873V109H550.39V62.0371H554.97L582.519 104.591L609.76 62.0371H614.306V109H610.102ZM630.165 109V62.0371H634.438V109H630.165ZM644.418 51.3389L629.379 57.6963L628.046 55.0303L642.675 47.75L644.418 51.3389ZM695.346 109L654.535 67.6426V109H650.263V62.0371H654.979L695.79 103.531V62.0371H699.994V109H695.346ZM715.819 109V62.0371H720.092V109H715.819ZM792.279 85.5527C792.279 89.7682 791.516 93.4141 789.989 96.4902C788.463 99.5436 786.366 102.073 783.7 104.078C781.034 106.061 777.89 107.53 774.267 108.487C770.644 109.444 766.736 109.923 762.543 109.923C758.327 109.923 754.397 109.444 750.751 108.487C747.105 107.53 743.938 106.061 741.249 104.078C738.56 102.073 736.452 99.5436 734.926 96.4902C733.399 93.4141 732.636 89.7682 732.636 85.5527C732.636 82.75 732.989 80.2093 733.695 77.9307C734.402 75.6292 735.393 73.5785 736.669 71.7783C737.945 69.9554 739.483 68.3831 741.283 67.0615C743.106 65.7399 745.123 64.6462 747.333 63.7803C749.566 62.8916 751.959 62.2422 754.511 61.832C757.063 61.3991 759.74 61.1826 762.543 61.1826C766.736 61.1826 770.644 61.6611 774.267 62.6182C777.89 63.5752 781.034 65.0563 783.7 67.0615C786.366 69.0439 788.463 71.5732 789.989 74.6494C791.516 77.7028 792.279 81.3372 792.279 85.5527ZM787.87 85.5527C787.87 82.2259 787.323 79.2865 786.229 76.7344C785.159 74.1823 783.563 72.0404 781.444 70.3086C779.325 68.554 776.682 67.2324 773.515 66.3438C770.37 65.4323 766.713 64.9766 762.543 64.9766C758.373 64.9766 754.693 65.4323 751.503 66.3438C748.336 67.2552 745.681 68.5882 743.539 70.3428C741.397 72.0745 739.779 74.2279 738.686 76.8027C737.592 79.3548 737.045 82.2715 737.045 85.5527C737.045 88.8796 737.592 91.819 738.686 94.3711C739.779 96.9232 741.397 99.0765 743.539 100.831C745.681 102.563 748.336 103.884 751.503 104.796C754.693 105.685 758.373 106.129 762.543 106.129C766.713 106.129 770.37 105.685 773.515 104.796C776.682 103.884 779.325 102.563 781.444 100.831C783.563 99.0765 785.159 96.9232 786.229 94.3711C787.323 91.819 787.87 88.8796 787.87 85.5527Z" fill="#606673"/>
<line x1="346" y1="69.5" x2="8" y2="69.5" stroke="#FF4E16" stroke-width="7"/>
<line x1="792" y1="117.5" x2="411" y2="117.5" stroke="#FF4E16" stroke-width="7"/>
</svg>
