<svg width="127" height="104" viewBox="0 0 127 104" fill="none" xmlns="http://www.w3.org/2000/svg">
<rect x="95" y="21" width="21" height="21" transform="rotate(-180 95 21)" fill="#F6F6F6"/>
<rect x="71" width="42" height="21" transform="rotate(90 71 0)" fill="#F9BF1B"/>
<rect x="95" y="64" width="64" height="19" transform="rotate(-180 95 64)" fill="#F6F6F6"/>
<rect x="26" y="64" width="64" height="21" transform="rotate(-90 26 64)" fill="#F6F6F6"/>
<rect x="95" y="42" width="42" height="18" transform="rotate(-180 95 42)" fill="#F9BF1B"/>
<path d="M15.7529 91H3.00684V72.7949H6.65039V87.3564H15.7529V91Z" fill="#F9BF1B"/>
<path d="M32.0156 83.7256C32.0156 84.7327 31.8252 85.6807 31.4443 86.5693C31.0635 87.4495 30.543 88.2197 29.8828 88.8799C29.2227 89.5316 28.4482 90.0479 27.5596 90.4287C26.6794 90.8096 25.7357 91 24.7285 91C23.7214 91 22.7734 90.8096 21.8848 90.4287C21.0046 90.0479 20.2344 89.5316 19.5742 88.8799C18.9225 88.2197 18.4062 87.4495 18.0254 86.5693C17.6445 85.6807 17.4541 84.7327 17.4541 83.7256V72.7949H21.085V83.7256C21.085 84.2249 21.1781 84.6947 21.3643 85.1348C21.5589 85.5749 21.8213 85.96 22.1514 86.29C22.4814 86.6201 22.8665 86.8825 23.3066 87.0771C23.7552 87.2633 24.2292 87.3564 24.7285 87.3564C25.2279 87.3564 25.6976 87.2633 26.1377 87.0771C26.5863 86.8825 26.9756 86.6201 27.3057 86.29C27.6357 85.96 27.8939 85.5749 28.0801 85.1348C28.2747 84.6947 28.3721 84.2249 28.3721 83.7256V72.7949H32.0156V83.7256ZM53.2422 91H49.6113V78C49.6113 77.7461 49.5605 77.5091 49.459 77.2891C49.3659 77.069 49.2347 76.8786 49.0654 76.7178C48.9046 76.5485 48.7142 76.4173 48.4941 76.3242C48.2741 76.2311 48.0371 76.1846 47.7832 76.1846C47.5293 76.1846 47.2923 76.2311 47.0723 76.3242C46.8522 76.4173 46.6576 76.5485 46.4883 76.7178C46.3275 76.8786 46.2005 77.069 46.1074 77.2891C46.0143 77.5091 45.9678 77.7461 45.9678 78V91H42.3242V78C42.3242 77.7461 42.2777 77.5091 42.1846 77.2891C42.0915 77.069 41.9603 76.8786 41.791 76.7178C41.6302 76.5485 41.4398 76.4173 41.2197 76.3242C40.9997 76.2311 40.7627 76.1846 40.5088 76.1846C40.2549 76.1846 40.0179 76.2311 39.7979 76.3242C39.5778 76.4173 39.3831 76.5485 39.2139 76.7178C39.0531 76.8786 38.9261 77.069 38.833 77.2891C38.7399 77.5091 38.6934 77.7461 38.6934 78V91H35.0498V78C35.0498 77.2467 35.1895 76.54 35.4688 75.8799C35.7565 75.2113 36.1458 74.6315 36.6367 74.1406C37.1361 73.6413 37.7158 73.252 38.376 72.9727C39.0446 72.6849 39.7555 72.541 40.5088 72.541C41.1859 72.541 41.8376 72.6637 42.4639 72.9092C43.0902 73.1462 43.653 73.4932 44.1523 73.9502C44.6517 73.4932 45.2103 73.1462 45.8281 72.9092C46.4544 72.6637 47.1061 72.541 47.7832 72.541C48.5365 72.541 49.2432 72.6849 49.9033 72.9727C50.5719 73.252 51.1517 73.6413 51.6426 74.1406C52.1419 74.6315 52.5312 75.2113 52.8105 75.8799C53.0983 76.54 53.2422 77.2467 53.2422 78V91ZM60.1484 91H56.5049V72.7949H60.1484V91ZM78.0996 91H74.2021L67.1816 79.0156V91H63.5381V72.7949H67.4355L74.4561 84.792V72.7949H78.0996V91ZM85.1328 91H81.4893V72.7949H85.1328V91ZM102.881 83.7256C102.881 84.7327 102.69 85.6807 102.31 86.5693C101.929 87.4495 101.408 88.2197 100.748 88.8799C100.088 89.5316 99.3135 90.0479 98.4248 90.4287C97.5446 90.8096 96.6009 91 95.5938 91C94.5866 91 93.6387 90.8096 92.75 90.4287C91.8698 90.0479 91.0996 89.5316 90.4395 88.8799C89.7878 88.2197 89.2715 87.4495 88.8906 86.5693C88.5098 85.6807 88.3193 84.7327 88.3193 83.7256V72.7949H91.9502V83.7256C91.9502 84.2249 92.0433 84.6947 92.2295 85.1348C92.4242 85.5749 92.6865 85.96 93.0166 86.29C93.3467 86.6201 93.7318 86.8825 94.1719 87.0771C94.6204 87.2633 95.0944 87.3564 95.5938 87.3564C96.0931 87.3564 96.5628 87.2633 97.0029 87.0771C97.4515 86.8825 97.8408 86.6201 98.1709 86.29C98.501 85.96 98.7591 85.5749 98.9453 85.1348C99.14 84.6947 99.2373 84.2249 99.2373 83.7256V72.7949H102.881V83.7256ZM124.107 91H120.477V78C120.477 77.7461 120.426 77.5091 120.324 77.2891C120.231 77.069 120.1 76.8786 119.931 76.7178C119.77 76.5485 119.579 76.4173 119.359 76.3242C119.139 76.2311 118.902 76.1846 118.648 76.1846C118.395 76.1846 118.158 76.2311 117.938 76.3242C117.717 76.4173 117.523 76.5485 117.354 76.7178C117.193 76.8786 117.066 77.069 116.973 77.2891C116.88 77.5091 116.833 77.7461 116.833 78V91H113.189V78C113.189 77.7461 113.143 77.5091 113.05 77.2891C112.957 77.069 112.826 76.8786 112.656 76.7178C112.495 76.5485 112.305 76.4173 112.085 76.3242C111.865 76.2311 111.628 76.1846 111.374 76.1846C111.12 76.1846 110.883 76.2311 110.663 76.3242C110.443 76.4173 110.248 76.5485 110.079 76.7178C109.918 76.8786 109.791 77.069 109.698 77.2891C109.605 77.5091 109.559 77.7461 109.559 78V91H105.915V78C105.915 77.2467 106.055 76.54 106.334 75.8799C106.622 75.2113 107.011 74.6315 107.502 74.1406C108.001 73.6413 108.581 73.252 109.241 72.9727C109.91 72.6849 110.621 72.541 111.374 72.541C112.051 72.541 112.703 72.6637 113.329 72.9092C113.955 73.1462 114.518 73.4932 115.018 73.9502C115.517 73.4932 116.076 73.1462 116.693 72.9092C117.32 72.6637 117.971 72.541 118.648 72.541C119.402 72.541 120.108 72.6849 120.769 72.9727C121.437 73.252 122.017 73.6413 122.508 74.1406C123.007 74.6315 123.396 75.2113 123.676 75.8799C123.964 76.54 124.107 77.2467 124.107 78V91Z" fill="#F6F6F6"/>
</svg>
