<svg width="25" height="16" viewBox="0 0 25 16" fill="none" xmlns="http://www.w3.org/2000/svg">
<path d="M24.0302 15.3697C24.0433 15.3292 24.0523 15.2866 24.0523 15.2416V0.418248C24.0523 0.373047 24.0433 0.330078 24.0299 0.289342C24.028 0.283761 24.0269 0.278181 24.0246 0.2726C24.0068 0.224888 23.9805 0.18192 23.9476 0.144252C23.9454 0.141741 23.9451 0.138672 23.9429 0.136161L23.9384 0.132812C23.9033 0.0954241 23.8617 0.0652901 23.8151 0.0426897C23.8115 0.0410156 23.8087 0.0387833 23.805 0.0371092C23.761 0.0172989 23.713 0.00613846 23.6625 0.00279024C23.6575 0.00251122 23.6527 0.00139486 23.6477 0.00139486C23.6429 0.00111584 23.6388 0 23.634 0H0.418797C0.414054 0 0.40959 0.00111584 0.404847 0.00139486C0.400383 0.00167387 0.395918 0.00251122 0.391454 0.00279024C0.340395 0.00613846 0.291568 0.0175782 0.246926 0.0376675C0.244136 0.0387835 0.241904 0.0407365 0.239113 0.0418526C0.191681 0.064453 0.149551 0.0951449 0.114116 0.133091L0.109652 0.136161C0.10742 0.138393 0.107141 0.141462 0.104909 0.143973C0.0719851 0.181641 0.045479 0.224888 0.0276222 0.2726C0.0253901 0.278181 0.024274 0.283761 0.022321 0.289621C0.00892837 0.330357 0 0.373326 0 0.418527V15.2422C0 15.2879 0.00920734 15.3315 0.0228789 15.3728C0.024832 15.3783 0.0259481 15.3836 0.0279012 15.3892C0.046037 15.4372 0.0728221 15.4805 0.106025 15.5181C0.107978 15.5204 0.108536 15.5232 0.110489 15.5254C0.112163 15.5273 0.114395 15.5285 0.116348 15.5304C0.13002 15.5446 0.145086 15.5572 0.160711 15.5695C0.167686 15.5748 0.173825 15.5812 0.181079 15.5862C0.199494 15.5991 0.219304 15.6094 0.239671 15.6189C0.244694 15.6211 0.249158 15.6247 0.25418 15.6267C0.304681 15.6482 0.360205 15.6604 0.418518 15.6604H23.6335C23.6918 15.6604 23.7473 15.6484 23.7978 15.6267C23.8056 15.6233 23.8129 15.6183 23.8204 15.6144C23.8377 15.6057 23.855 15.5968 23.8709 15.5859C23.8793 15.5801 23.8868 15.5725 23.8949 15.5661C23.9091 15.5547 23.9231 15.5432 23.9353 15.5301C23.9376 15.5279 23.9401 15.5262 23.9423 15.524C23.9446 15.5215 23.9451 15.5181 23.9473 15.5156C23.98 15.4782 24.0062 15.4353 24.0241 15.3878C24.0269 15.3817 24.0283 15.3758 24.0302 15.3697ZM0.837316 1.36747L7.88154 7.8019L0.837316 14.2877V1.36747ZM15.2751 7.48661C15.2461 7.50558 15.2154 7.52148 15.1911 7.54827C15.1819 7.55832 15.1788 7.57143 15.1707 7.58203L12.0263 10.4542L1.49746 0.836775H22.5551L15.2751 7.48661ZM8.50206 8.36858L11.7439 11.3298C11.824 11.4029 11.925 11.4395 12.0263 11.4395C12.1275 11.4395 12.2286 11.4029 12.3083 11.3298L15.51 8.40541L22.5531 14.8234H1.49132L8.50206 8.36858ZM16.1308 7.83845L23.2152 1.36747V14.2944L16.1308 7.83845Z" fill="black"/>
</svg>
